Coordinates
version=1
nRows=5
nColumns=40
inDegrees=yes

Units are S.I. units (second, meters, Newtons, ...)
Angles are in degrees.

endheader
time	pelvis_tilt	pelvis_list	pelvis_rotation	pelvis_tx	pelvis_ty	pelvis_tz	hip_flexion_r	hip_adduction_r	hip_rotation_r	knee_angle_r	knee_angle_r_beta	ankle_angle_r	subtalar_angle_r	mtp_angle_r	hip_flexion_l	hip_adduction_l	hip_rotation_l	knee_angle_l	knee_angle_l_beta	ankle_angle_l	subtalar_angle_l	mtp_angle_l	lumbar_extension	lumbar_bending	lumbar_rotation	arm_flex_r	arm_add_r	arm_rot_r	elbow_flex_r	pro_sup_r	wrist_flex_r	wrist_dev_r	arm_flex_l	arm_add_l	arm_rot_l	elbow_flex_l	pro_sup_l	wrist_flex_l	wrist_dev_l
     24.31500000	     -6.85764193	     -4.68359242	      2.05802407	      0.79840025	      0.92169443	      0.52967692	      4.94057778	      3.01126943	    -17.35300574	     13.84802333	     13.84802333	     16.26440239	      2.54658198	     -3.64402619	     30.10186545	     -9.26074670	     -3.05255394	     19.73344100	     19.73344100	      1.79295692	    -10.51687106	      7.16439567	    -10.28108574	      8.27123436	      3.14798953	     33.14153072	    -18.79563200	     -1.78874987	     52.89518496	     45.34982991	      0.00000000	      0.00000000	     -9.42014378	     -6.88101000	     -5.86285281	     32.58705775	     45.95964487	      0.00000000	      0.00000000
     24.32835714	     -6.84216618	     -4.72895102	      2.06168614	      0.79868581	      0.92101476	      0.52753736	      4.53234931	      2.90070808	    -17.23850525	     14.04408724	     14.04408724	     16.52579622	      2.45843179	     -3.70560712	     29.52975874	     -9.14471538	     -2.99137523	     20.10710068	     20.10710068	      2.10570544	    -10.66255765	      6.95437927	    -10.11751918	      8.31663805	      2.90791313	     32.62257809	    -18.54723892	     -1.71325015	     52.89849276	     45.34376024	      0.00000000	      0.00000000	     -9.20492658	     -6.93200176	     -5.85759089	     32.74352850	     45.96224612	      0.00000000	      0.00000000
     24.34171429	     -6.71035858	     -4.72921908	      2.15166360	      0.79888418	      0.92065754	      0.52524135	      4.06973078	      2.71460293	    -17.17056365	     14.37087908	     14.37087908	     16.73762158	      2.26564545	     -3.73551361	     29.02955414	     -8.96889370	     -2.85337848	     20.65034474	     20.65034474	      2.47508887	    -10.82373786	      6.64062685	    -10.12416209	      8.20543234	      2.62675975	     31.81755923	    -18.17975312	     -1.60089144	     52.91051270	     45.33427238	      0.00000000	      0.00000000	     -8.94103277	     -7.02604037	     -5.86146759	     32.97894434	     45.96680608	      0.00000000	      0.00000000
     24.35507143	     -6.70774256	     -4.68819317	      2.22995265	      0.79885697	      0.92020672	      0.52272682	      3.94761716	      2.43350671	    -16.87242954	     15.07668792	     15.07668792	     17.16499199	      1.69587963	     -3.18073385	     28.81078255	     -8.77477395	     -2.87981067	     21.27928196	     21.27928196	      2.64700828	    -10.96650347	      5.57973273	    -10.16984667	      8.12304127	      2.65275983	     30.16262522	    -18.38671699	     -1.73913631	     55.15917148	     45.25843631	      0.00000000	      0.00000000	     -8.94361144	     -7.17077822	     -5.79754852	     34.81394949	     45.95947968	      0.00000000	      0.00000000
     24.36842857	     -6.64564324	     -4.66896284	      2.39180523	      0.79888723	      0.92021123	      0.51994087	      3.56581820	      2.18017238	    -16.93011346	     15.38259414	     15.38259414	     17.19759170	      1.56573153	     -3.18346211	     28.52607467	     -8.51949520	     -2.64669770	     21.79324480	     21.79324480	      3.14488865	    -11.23982446	      5.29035164	    -10.14763706	      8.07294051	      2.35164929	     29.24206825	    -18.14782507	     -1.66121010	     54.97787166	     45.25762698	      0.00000000	      0.00000000	     -8.57629275	     -7.38344471	     -5.79681753	     34.98638467	     45.96522395	      0.00000000	      0.00000000
